<?xml version="1.0" encoding="UTF-8"?>
<svg width="512px" height="512px" viewBox="0 0 512 512" version="1.1" xmlns="http://www.w3.org/2000/svg" xmlns:xlink="http://www.w3.org/1999/xlink">
    <title>logo</title>
    <defs>
        <path d="M41.0221632,-1.65734449e-15 L470.977837,1.65734449e-15 C485.242137,-9.62964878e-16 490.414716,1.48520978 495.629531,4.27412326 C500.844346,7.06303674 504.936963,11.1556539 507.725877,16.3704687 C510.51479,21.5852836 512,26.7578634 512,41.0221632 L512,470.977837 C512,485.242137 510.51479,490.414716 507.725877,495.629531 C504.936963,500.844346 500.844346,504.936963 495.629531,507.725877 C490.414716,510.51479 485.242137,512 470.977837,512 L41.0221632,512 C26.7578634,512 21.5852836,510.51479 16.3704687,507.725877 C11.1556539,504.936963 7.06303674,500.844346 4.27412326,495.629531 C1.48520978,490.414716 6.41976585e-16,485.242137 -1.10489633e-15,470.977837 L1.10489633e-15,41.0221632 C-6.41976585e-16,26.7578634 1.48520978,21.5852836 4.27412326,16.3704687 C7.06303674,11.1556539 11.1556539,7.06303674 16.3704687,4.27412326 C21.5852836,1.48520978 26.7578634,9.62964878e-16 41.0221632,-1.65734449e-15 Z" id="path-1"></path>
        <linearGradient x1="74.3854966%" y1="0%" x2="75.7393507%" y2="78.1922946%" id="linearGradient-3">
            <stop stop-color="#00E1D2" offset="0%"></stop>
            <stop stop-color="#00BFA6" offset="100%"></stop>
        </linearGradient>
        <path d="M141.666667,350 C169.444444,350 194.362745,344.362745 216.421569,333.088235 C238.480392,321.813725 255.882353,304.98366 268.627451,282.598039 C281.372549,260.212418 287.745098,232.679739 287.745098,200 L287.745098,200 L287.745098,0 L203.921569,0 L203.921569,200 C203.921569,222.875817 198.77451,240.359477 188.480392,252.45098 C178.186275,264.542484 163.235294,270.588235 143.627451,270.588235 C124.019608,270.588235 109.068627,264.542484 98.7745098,252.45098 C88.4803922,240.359477 83.3333333,222.875817 83.3333333,200 L83.3333333,200 L83.3333333,0 L8.52651283e-14,0 L8.52651283e-14,200 C8.52651283e-14,232.679739 6.04575163,260.294118 18.1372549,282.843137 C30.2287582,305.392157 46.8954248,322.222222 68.1372549,333.333333 C89.379085,344.444444 113.888889,350 141.666667,350 Z" id="path-4"></path>
        <path d="M141.666667,350 C169.444444,350 194.362745,344.362745 216.421569,333.088235 C238.480392,321.813725 255.882353,304.98366 268.627451,282.598039 C281.372549,260.212418 287.745098,232.679739 287.745098,200 L287.745098,150.130109 C231.862745,150.130109 203.921569,166.753406 203.921569,200 C203.921569,222.875817 198.77451,240.359477 188.480392,252.45098 C178.186275,264.542484 163.235294,270.588235 143.627451,270.588235 C124.019608,270.588235 109.068627,264.542484 98.7745098,252.45098 C88.4803922,240.359477 83.3333333,222.875817 83.3333333,200 L83.3333333,0 L1.13686838e-13,0 L1.13686838e-13,200 C1.13686838e-13,232.679739 6.04575163,260.294118 18.1372549,282.843137 C30.2287582,305.392157 46.8954248,322.222222 68.1372549,333.333333 C89.379085,344.444444 113.888889,350 141.666667,350 Z" id="path-6"></path>
        <filter x="-4.9%" y="-5.1%" width="109.7%" height="108.0%" filterUnits="objectBoundingBox" id="filter-7">
            <feOffset dx="0" dy="-4" in="SourceAlpha" result="shadowOffsetOuter1"></feOffset>
            <feGaussianBlur stdDeviation="4" in="shadowOffsetOuter1" result="shadowBlurOuter1"></feGaussianBlur>
            <feColorMatrix values="0 0 0 0 0   0 0 0 0 0   0 0 0 0 0  0 0 0 0.3 0" type="matrix" in="shadowBlurOuter1"></feColorMatrix>
        </filter>
    </defs>
    <g id="Page-1" stroke="none" stroke-width="1" fill="none" fill-rule="evenodd">
        <g id="logo">
            <mask id="mask-2" fill="white">
                <use xlink:href="#path-1"></use>
            </mask>
            <use id="Mask" fill="#FFFFFF" xlink:href="#path-1"></use>
            <g id="letter" mask="url(#mask-2)">
                <g transform="translate(112.000000, 81.000000)">
                    <mask id="mask-5" fill="white">
                        <use xlink:href="#path-4"></use>
                    </mask>
                    <use id="Mask" stroke="none" fill="url(#linearGradient-3)" fill-rule="nonzero" xlink:href="#path-4"></use>
                    <g id="U" stroke="none" fill="none" fill-rule="nonzero" mask="url(#mask-5)">
                        <use fill="black" fill-opacity="1" filter="url(#filter-7)" xlink:href="#path-6"></use>
                        <use fill="" xlink:href="#path-6"></use>
                    </g>
                </g>
            </g>
        </g>
    </g>
</svg>