<?xml version="1.0" encoding="UTF-8"?>
<svg width="434px" height="74px" viewBox="0 0 434 74" version="1.1" xmlns="http://www.w3.org/2000/svg" xmlns:xlink="http://www.w3.org/1999/xlink">
    <title>title@1x</title>
    <defs>
        <linearGradient x1="74.3854966%" y1="0%" x2="75.7393507%" y2="78.1922946%" id="linearGradient-1">
            <stop stop-color="#00E1D2" offset="0%"></stop>
            <stop stop-color="#00BFA6" offset="100%"></stop>
        </linearGradient>
        <path d="M29.1428571,72 C34.8571429,72 39.9831933,70.8403361 44.5210084,68.5210084 C49.0588235,66.2016807 52.6386555,62.7394958 55.2605042,58.1344538 C57.8823529,53.5294118 59.1932773,47.8655462 59.1932773,41.1428571 L59.1932773,41.1428571 L59.1932773,0 L41.9495798,0 L41.9495798,41.1428571 C41.9495798,45.8487395 40.8907563,49.4453782 38.7731092,51.9327731 C36.6554622,54.4201681 33.5798319,55.6638655 29.5462185,55.6638655 C25.512605,55.6638655 22.4369748,54.4201681 20.3193277,51.9327731 C18.2016807,49.4453782 17.1428571,45.8487395 17.1428571,41.1428571 L17.1428571,41.1428571 L17.1428571,0 L1.7540255e-14,0 L1.7540255e-14,41.1428571 C1.7540255e-14,47.8655462 1.24369748,53.5462185 3.73109244,58.1848739 C6.21848739,62.8235294 9.64705882,66.2857143 14.0168067,68.5714286 C18.3865546,70.8571429 23.4285714,72 29.1428571,72 Z" id="path-2"></path>
        <path d="M29.1428571,72 C34.8571429,72 39.9831933,70.8403361 44.5210084,68.5210084 C49.0588235,66.2016807 52.6386555,62.7394958 55.2605042,58.1344538 C57.8823529,53.5294118 59.1932773,47.8655462 59.1932773,41.1428571 L59.1932773,30.8839081 C47.697479,30.8839081 41.9495798,34.3035578 41.9495798,41.1428571 C41.9495798,45.8487395 40.8907563,49.4453782 38.7731092,51.9327731 C36.6554622,54.4201681 33.5798319,55.6638655 29.5462185,55.6638655 C25.512605,55.6638655 22.4369748,54.4201681 20.3193277,51.9327731 C18.2016807,49.4453782 17.1428571,45.8487395 17.1428571,41.1428571 L17.1428571,0 L2.33870066e-14,0 L2.33870066e-14,41.1428571 C2.33870066e-14,47.8655462 1.24369748,53.5462185 3.73109244,58.1848739 C6.21848739,62.8235294 9.64705882,66.2857143 14.0168067,68.5714286 C18.3865546,70.8571429 23.4285714,72 29.1428571,72 Z" id="path-4"></path>
        <filter x="-23.7%" y="-25.0%" width="147.3%" height="138.9%" filterUnits="objectBoundingBox" id="filter-5">
            <feOffset dx="0" dy="-4" in="SourceAlpha" result="shadowOffsetOuter1"></feOffset>
            <feGaussianBlur stdDeviation="4" in="shadowOffsetOuter1" result="shadowBlurOuter1"></feGaussianBlur>
            <feColorMatrix values="0 0 0 0 0   0 0 0 0 0   0 0 0 0 0  0 0 0 0.3 0" type="matrix" in="shadowBlurOuter1"></feColorMatrix>
        </filter>
    </defs>
    <g id="Page-1" stroke="none" stroke-width="1" fill="none" fill-rule="evenodd">
        <g id="Title" transform="translate(-552.000000, -114.000000)">
            <g id="title" transform="translate(552.000000, 114.600000)">
                <path d="M87.17347,71.4 L87.17347,46.6 L97.77347,46.6 C103.306803,46.6 108.006803,45.6166667 111.87347,43.65 C115.740137,41.6833333 118.656803,38.9833333 120.62347,35.55 C122.590137,32.1166667 123.57347,28.2 123.57347,23.8 C123.57347,16.7333333 121.37347,11.1166667 116.97347,6.95 C112.57347,2.78333333 106.17347,0.7 97.77347,0.7 L97.77347,0.7 L70.07347,0.7 L70.07347,71.4 L87.17347,71.4 Z M95.87347,32.9 L87.17347,32.9 L87.17347,14.5 L95.87347,14.5 C102.740137,14.5 106.17347,17.6 106.17347,23.8 C106.17347,29.8666667 102.740137,32.9 95.87347,32.9 L95.87347,32.9 Z M150.961225,71.4 L150.961225,44.7 L154.861225,44.7 L170.161225,71.4 L189.061225,71.4 L172.261225,43.6 C177.661225,42.2666667 181.777892,39.8 184.611225,36.2 C187.444558,32.6 188.861225,28.2333333 188.861225,23.1 C188.861225,18.7666667 187.894558,14.9166667 185.961225,11.55 C184.027892,8.18333333 181.127892,5.53333333 177.261225,3.6 C173.394558,1.66666667 168.661225,0.7 163.061225,0.7 L163.061225,0.7 L133.861225,0.7 L133.861225,71.4 L150.961225,71.4 Z M161.561225,33 L150.961225,33 L150.961225,15.1 L161.561225,15.1 C164.894558,15.1 167.377892,15.9 169.011225,17.5 C170.644558,19.1 171.461225,21.3 171.461225,24.1 C171.461225,27.0333333 170.661225,29.25 169.061225,30.75 C167.461225,32.25 164.961225,33 161.561225,33 L161.561225,33 Z M216.44898,71.4 L216.44898,0.7 L199.34898,0.7 L199.34898,71.4 L216.44898,71.4 Z M263.436735,72 C269.303402,72 274.520068,70.9 279.086735,68.7 C283.653402,66.5 287.403402,63.6333333 290.336735,60.1 C293.270068,56.5666667 295.403402,52.7333333 296.736735,48.6 L296.736735,48.6 L296.736735,31.7 L260.836735,31.7 L260.836735,44 L282.436735,44 C281.170068,48.1333333 279.003402,51.3166667 275.936735,53.55 C272.870068,55.7833333 269.303402,56.9 265.236735,56.9 C258.903402,56.9 254.020068,55.1 250.586735,51.5 C247.153402,47.9 245.436735,42.7333333 245.436735,36 C245.436735,29.8 247.070068,24.8833333 250.336735,21.25 C253.603402,17.6166667 257.936735,15.8 263.336735,15.8 C266.803402,15.8 269.770068,16.55 272.236735,18.05 C274.703402,19.55 276.536735,21.5666667 277.736735,24.1 L277.736735,24.1 L295.836735,24.1 C294.436735,16.7 290.870068,10.8333333 285.136735,6.5 C279.403402,2.16666667 272.103402,0 263.236735,0 C256.170068,0 249.986735,1.51666667 244.686735,4.55 C239.386735,7.58333333 235.286735,11.8333333 232.386735,17.3 C229.486735,22.7666667 228.036735,29 228.036735,36 C228.036735,43 229.486735,49.2333333 232.386735,54.7 C235.286735,60.1666667 239.403402,64.4166667 244.736735,67.45 C250.070068,70.4833333 256.303402,72 263.436735,72 Z M325.32449,71.4 L325.32449,41.9 L352.12449,41.9 L352.12449,71.4 L369.32449,71.4 L369.32449,0.7 L352.12449,0.7 L352.12449,28.1 L325.32449,28.1 L325.32449,0.7 L308.22449,0.7 L308.22449,71.4 L325.32449,71.4 Z M414.612245,71.4 L414.612245,14.3 L433.812245,14.3 L433.812245,0.7 L378.412245,0.7 L378.412245,14.3 L397.412245,14.3 L397.412245,71.4 L414.612245,71.4 Z" id="PRIGHT" fill="#00E1D2" fill-rule="nonzero"></path>
                <g id="letter" transform="translate(0.000000, 0.400000)">
                    <mask id="mask-3" fill="white">
                        <use xlink:href="#path-2"></use>
                    </mask>
                    <use id="Mask" fill="url(#linearGradient-1)" fill-rule="nonzero" xlink:href="#path-2"></use>
                    <g id="U" fill-rule="nonzero" mask="url(#mask-3)">
                        <use fill="black" fill-opacity="1" filter="url(#filter-5)" xlink:href="#path-4"></use>
                        <use fill="" xlink:href="#path-4"></use>
                    </g>
                </g>
            </g>
        </g>
    </g>
</svg>